<?xml version="1.0" encoding="utf-8"?>
<!-- Svg Vector Icons : http://www.onlinewebfonts.com/icon -->
<!DOCTYPE svg PUBLIC "-//W3C//DTD SVG 1.1//EN" "http://www.w3.org/Graphics/SVG/1.1/DTD/svg11.dtd">
<svg version="1.1" xmlns="http://www.w3.org/2000/svg" xmlns:xlink="http://www.w3.org/1999/xlink" x="0px" y="0px" viewBox="0 0 1000 1000" enable-background="new 0 0 1000 1000" xml:space="preserve">
<metadata> Svg Vector Icons : http://www.onlinewebfonts.com/icon </metadata>
<g><g transform="translate(0.000000,511.000000) scale(0.100000,-0.100000)"><path d="M4670,4998.6c-616.8-85.3-1130.4-331.2-1562.8-741.7c-249.9-238-416.5-466.1-569.2-775.4c-222.1-448.2-299.5-811.1-281.6-1328.7c11.9-362.9,45.6-531.5,184.4-940c257.8-759.6,745.7-1749.2,1818.6-3690.8c208.2-376.8,458.1-836.9,559.3-1023.3l180.5-341.1l117,222.1c63.5,121,349,644.5,634.6,1162.1c660.4,1197.9,878.6,1608.4,1197.9,2260.8c458.1,936.1,702,1574.7,777.4,2042.7c27.8,170.6,25.8,612.8-2,807.2c-130.9,902.4-704,1685.7-1517.1,2078.4c-402.6,194.4-684.2,263.8-1120.5,277.6C4927.8,5012.5,4741.4,5008.5,4670,4998.6z M5334.4,4373.9c892.4-144.8,1596.5-817.1,1775-1697.6c49.6-238,53.6-654.5,9.9-860.7C6984.4,1175,6347.8-167.7,5298.7-2027.9c-164.6-291.5-305.4-523.6-313.4-515.6c-23.8,23.8-273.7,464.1-563.2,987.6C3492,129.8,2954.6,1307.8,2855.4,1877C2603.5,3320.8,3882.7,4609.9,5334.4,4373.9z"/><path d="M4729.5,3136.3c-275.7-89.2-468-255.8-589-511.7c-67.4-136.8-75.4-174.5-81.3-345.1c-13.9-313.3,71.4-529.5,293.5-739.7c366.9-349,928.1-347.1,1297,7.9c218.2,208.2,299.5,416.5,285.6,733.8c-5.9,180.5-13.9,206.3-91.2,362.9c-126.9,255.8-337.1,430.4-608.9,501.8C5096.4,3183.9,4860.4,3180,4729.5,3136.3z"/><path d="M4422.1-3523.3c-614.8-71.4-1013.4-182.5-1257.4-345.1c-267.7-178.5-267.7-380.8,4-555.3c712-460.1,2699.1-493.8,3555.9-61.5C6936.8-4378,7030-4272.9,7030-4144c0,287.6-569.2,525.5-1487.4,624.7l-109.1,11.9l-198.3-378.8c-109.1-208.2-206.3-390.7-218.2-406.6c-15.9-23.8-69.4,61.5-236,376.8c-180.5,337.1-224.1,406.6-257.8,404.6C4499.5-3513.4,4455.8-3519.3,4422.1-3523.3z"/></g></g>
</svg>